<svg width="62" height="60" fill="none" xmlns="http://www.w3.org/2000/svg"><path fill-rule="evenodd" clip-rule="evenodd" d="M31 5c-9.997 0-18.083 7.825-18.083 17.5C12.917 35.625 31 55 31 55s18.084-19.375 18.084-32.5C49.084 12.825 40.998 5 31 5zM18.084 22.5C18.084 15.6 23.87 10 31 10s12.916 5.6 12.916 12.5c0 7.2-7.44 17.975-12.916 24.7-5.374-6.675-12.917-17.575-12.917-24.7z" fill="#6056DD"/><path fill-rule="evenodd" clip-rule="evenodd" d="M31 28.75c3.567 0 6.459-2.798 6.459-6.25S34.567 16.25 31 16.25c-3.567 0-6.458 2.798-6.458 6.25s2.891 6.25 6.458 6.25z" fill="#6056DD"/></svg>